<svg width="196" height="158" viewBox="0 0 196 158" fill="none" xmlns="http://www.w3.org/2000/svg">
<g id="Capa_1" clip-path="url(#clip0_265_555)">
<path id="Vector" d="M196 158H22.6699V49.1109H25.2604V155.414H193.409V27.2563H120.781V24.6699H196V158Z" fill="white"/>
<path id="Vector_2" d="M120.615 49.5766H0V0L13.548 18.5589H120.615V49.5766Z" fill="#F38568"/>
<g id="Group" opacity="0.77">
<path id="Vector_3" d="M41.2842 56.375H53.8034L65.9563 74.4203V56.375H78.8418V99.0534H66.9961L54.2327 80.0918V99.0534H41.2879V56.375H41.2842Z" fill="white"/>
<path id="Vector_4" d="M82.1316 78.3223V77.2249C82.1316 64.4225 90.6801 55.459 102.404 55.459C114.127 55.459 122.676 64.3006 122.676 77.103V78.2004C122.676 91.0028 114.064 99.9663 102.341 99.9663C90.6172 99.9663 82.1279 91.1247 82.1279 78.3223H82.1316ZM109.305 78.2004V77.2878C109.305 70.9475 106.619 67.2269 102.344 67.2269C98.0702 67.2269 95.4428 70.8847 95.4428 77.2249V78.1376C95.4428 84.4778 98.1294 88.1985 102.404 88.1985C106.678 88.1985 109.305 84.5406 109.305 78.2004Z" fill="white"/>
<path id="Vector_5" d="M125.913 56.375H139.347L147.103 70.5186L154.919 56.375H168.293V99.0534H155.285V78.3257L147.103 92.3474H146.918L138.795 78.3257V99.0534H125.91V56.375H125.913Z" fill="white"/>
<path id="Vector_6" d="M41.284 102.855H60.8862C66.4445 102.855 70.3524 104.075 72.9761 106.635C74.5637 108.22 75.5999 110.478 75.5999 113.585V113.892C75.5999 118.647 72.7911 121.758 68.8203 123.402C73.4017 124.924 76.7582 127.792 76.7582 133.4V133.644C76.7582 140.472 71.4441 145.534 60.5753 145.534H41.2803V102.855H41.284ZM62.718 116.511C62.718 114.439 61.1933 113.341 58.4438 113.341H54.1066V119.682H58.4438C61.2526 119.682 62.718 118.584 62.718 116.571V116.508V116.511ZM59.1136 128.401H54.1066V135.048H59.1136C62.0445 135.048 63.5728 133.707 63.5728 131.756V131.693C63.5728 129.742 62.0445 128.401 59.1136 128.401Z" fill="white"/>
<path id="Vector_7" d="M79.3226 102.855H96.9079C103.502 102.855 108.084 104.503 110.952 107.367C113.453 109.868 114.8 113.097 114.8 117.55V117.915C114.8 124.075 111.87 128.035 107.473 130.415L116.022 145.534H101.245L94.5876 133.097H92.4487V145.534H79.3188V102.855H79.3226ZM96.7266 123.402C99.6575 123.402 101.552 121.817 101.552 118.828V118.525C101.552 115.477 99.6575 113.951 96.7895 113.951H92.4524V123.402H96.7266Z" fill="white"/>
<path id="Vector_8" d="M117.668 102.855H148.994V114.073H130.735V118.95H147.651V129.192H130.735V134.313H149.298V145.53H117.668V102.852V102.855Z" fill="white"/>
</g>
<g id="Group_2">
<path id="Vector_9" d="M6.23193 29.8467H10.7097C13.611 29.8467 15.5871 31.1842 15.5871 33.9811V34.0809C15.5871 36.9776 13.4074 38.3151 10.743 38.3151H9.83634V41.5628H6.23193V29.8467ZM10.558 35.5884C11.4128 35.5884 12.016 35.1376 12.016 34.2324V34.1659C12.016 33.2459 11.4646 32.7951 10.5728 32.7951H9.83634V35.5921H10.558V35.5884Z" fill="white"/>
<path id="Vector_10" d="M16.0384 35.8722V35.5692C16.0384 32.0555 18.3846 29.5947 21.6041 29.5947C24.8237 29.5947 27.1699 32.0222 27.1699 35.5359V35.8389C27.1699 39.3526 24.8052 41.8134 21.5856 41.8134C18.3661 41.8134 16.0347 39.3859 16.0347 35.8722H16.0384ZM23.4988 35.8389V35.5877C23.4988 33.8474 22.7624 32.8277 21.5893 32.8277C20.4162 32.8277 19.6946 33.8326 19.6946 35.5729V35.8241C19.6946 37.5644 20.431 38.5841 21.6041 38.5841C22.7772 38.5841 23.4988 37.5792 23.4988 35.8389Z" fill="white"/>
<path id="Vector_11" d="M28.0581 29.8467H31.496L34.834 34.8014V29.8467H38.3718V41.5628H35.1189L31.6144 36.3569V41.5628H28.0618V29.8467H28.0581Z" fill="white"/>
<path id="Vector_12" d="M39.2749 35.8722V35.5545C39.2749 32.0075 41.7876 29.6133 45.0923 29.6133C46.7872 29.6133 48.112 30.1306 49.3184 31.1023L47.4052 33.7625C46.802 33.2268 46.1137 32.8425 45.244 32.8425C43.9192 32.8425 42.9311 33.914 42.9311 35.6543V35.8538C42.9311 37.727 43.9192 38.732 45.2107 38.732C45.6955 38.732 45.9656 38.647 46.184 38.5325V37.1248H44.5742V34.5791H49.5367V40.3208C48.4117 41.1743 46.8871 41.795 45.0923 41.795C41.8394 41.795 39.2749 39.5522 39.2749 35.8685V35.8722Z" fill="white"/>
<path id="Vector_13" d="M53.8443 29.7799H57.6485L61.7044 41.5625H57.8631L57.3599 39.8888H54.0404L53.5556 41.5625H49.7847L53.8406 29.7799H53.8443ZM55.8241 26.6504L59.3767 27.4041L56.9454 29.1296H54.4141L55.8241 26.6504ZM56.5938 37.2138L55.7057 34.1656L54.8323 37.2138H56.5938Z" fill="white"/>
<path id="Vector_14" d="M62.0891 29.8467H65.7787L67.9065 33.7299L70.0529 29.8467H73.7239V41.5628H70.1528V35.8729L67.9065 39.7228H67.8547L65.6232 35.8729V41.5628H62.0854V29.8467H62.0891Z" fill="white"/>
<path id="Vector_15" d="M74.616 35.8722V35.5692C74.616 32.0555 76.9622 29.5947 80.1817 29.5947C83.4013 29.5947 85.7475 32.0222 85.7475 35.5359V35.8389C85.7475 39.3526 83.3828 41.8134 80.1632 41.8134C76.9437 41.8134 74.6123 39.3859 74.6123 35.8722H74.616ZM82.0765 35.8389V35.5877C82.0765 33.8474 81.34 32.8277 80.1632 32.8277C78.9864 32.8277 78.2685 33.8326 78.2685 35.5729V35.8241C78.2685 37.5644 79.0049 38.5841 80.1817 38.5841C81.3585 38.5841 82.0765 37.5792 82.0765 35.8389Z" fill="white"/>
<path id="Vector_16" d="M85.729 40.0407L87.472 37.4469C88.597 38.3004 89.8515 38.7512 90.958 38.7512C91.613 38.7512 91.8646 38.5184 91.8646 38.197V38.1637C91.8646 37.8127 91.5131 37.6132 90.4399 37.2918C88.0937 36.5897 86.2804 35.7695 86.2804 33.5268V33.4603C86.2804 31.2508 87.9568 29.6436 90.7915 29.6436C92.5678 29.6436 94.0443 30.0463 95.3839 31.0845L93.6891 33.7115C92.8342 33.0908 91.7277 32.6585 90.7397 32.6585C90.2031 32.6585 89.9366 32.8913 89.9366 33.1758V33.209C89.9366 33.56 90.2882 33.7632 91.4465 34.129C93.8445 34.783 95.5357 35.703 95.5357 37.8608V37.9125C95.5357 40.2734 93.6928 41.7624 90.9247 41.7624C88.9448 41.7624 87.1537 41.2119 85.729 40.037V40.0407Z" fill="white"/>
<path id="Vector_17" d="M96.3091 29.8467H99.932V38.3853H104.41V41.5665H96.3128V29.8504L96.3091 29.8467Z" fill="white"/>
<path id="Vector_18" d="M105.142 29.8467H113.743V32.9281H108.728V34.2656H113.373V37.0774H108.728V38.4851H113.824V41.5665H105.139V29.8504L105.142 29.8467Z" fill="white"/>
</g>
</g>
<defs>
<clipPath id="clip0_265_555">
<rect width="196" height="158" fill="white"/>
</clipPath>
</defs>
</svg>
