<svg width="1205" height="1205" viewBox="0 0 1205 1205" fill="none" xmlns="http://www.w3.org/2000/svg">
<g filter="url(#filter0_d_12_15)">
<circle cx="602.5" cy="598.5" r="598.5" fill="#EA5C5C"/>
<g filter="url(#filter1_d_12_15)">
<path d="M232 413.667C232 389.09 241.759 365.52 259.129 348.141C276.5 330.763 300.059 321 324.625 321H880.375C904.941 321 928.5 330.763 945.871 348.141C963.241 365.52 973 389.09 973 413.667V784.333C973 808.91 963.241 832.48 945.871 849.859C928.5 867.237 904.941 877 880.375 877H324.625C300.059 877 276.5 867.237 259.129 849.859C241.759 832.48 232 808.91 232 784.333V413.667ZM324.625 367.333C312.342 367.333 300.562 372.215 291.877 380.904C283.192 389.593 278.312 401.378 278.312 413.667V423.721L602.5 618.321L926.688 423.721V413.667C926.688 401.378 921.808 389.593 913.123 380.904C904.438 372.215 892.658 367.333 880.375 367.333H324.625ZM926.688 477.746L708.648 608.637L926.688 742.865V477.746ZM925.113 796.334L663.91 635.511L602.5 672.346L541.09 635.511L279.887 796.287C282.519 806.147 288.331 814.861 296.42 821.078C304.51 827.295 314.424 830.665 324.625 830.667H880.375C890.569 830.668 900.479 827.304 908.568 821.096C916.657 814.889 922.472 806.185 925.113 796.334ZM278.312 742.865L496.352 608.637L278.312 477.746V742.865Z" fill="#FFCFC2"/>
<path d="M269.312 423.721V428.816L273.681 431.438L597.868 626.038L602.5 628.818L607.132 626.038L931.32 431.438L935.688 428.816V423.721V413.667C935.688 398.993 929.861 384.919 919.488 374.542C909.115 364.164 895.046 358.333 880.375 358.333H324.625C309.954 358.333 295.885 364.164 285.512 374.542C275.139 384.919 269.312 398.993 269.312 413.667V423.721ZM935.688 477.746V461.846L922.055 470.029L704.016 600.921L691.323 608.541L703.93 616.301L921.969 750.529L935.688 758.974V742.865V477.746ZM933.806 798.664L935.542 792.186L929.831 788.67L668.629 627.847L663.971 624.979L659.281 627.793L602.5 661.851L545.719 627.793L541.029 624.98L536.372 627.846L275.169 788.623L269.464 792.135L271.192 798.608C274.334 810.382 281.275 820.79 290.936 828.214C300.598 835.639 312.44 839.665 324.624 839.667H324.625H880.374C880.374 839.667 880.375 839.667 880.375 839.667C892.551 839.668 904.387 835.65 914.048 828.236C923.708 820.822 930.653 810.427 933.806 798.664ZM269.312 742.865V758.974L283.031 750.529L501.07 616.301L513.677 608.541L500.984 600.921L282.945 470.029L269.312 461.846V477.746V742.865ZM241 413.667C241 391.476 249.811 370.194 265.495 354.504C281.178 338.814 302.448 330 324.625 330H880.375C902.552 330 923.822 338.814 939.505 354.504C955.189 370.194 964 391.476 964 413.667V784.333C964 806.524 955.189 827.806 939.505 843.496C923.822 859.186 902.552 868 880.375 868H324.625C302.448 868 281.178 859.186 265.495 843.496C249.811 827.806 241 806.524 241 784.333V413.667Z" stroke="#FFCFC2" stroke-width="18"/>
</g>
</g>
<defs>
<filter id="filter0_d_12_15" x="0" y="0" width="1205" height="1205" filterUnits="userSpaceOnUse" color-interpolation-filters="sRGB">
<feFlood flood-opacity="0" result="BackgroundImageFix"/>
<feColorMatrix in="SourceAlpha" type="matrix" values="0 0 0 0 0 0 0 0 0 0 0 0 0 0 0 0 0 0 127 0" result="hardAlpha"/>
<feOffset dy="4"/>
<feGaussianBlur stdDeviation="2"/>
<feComposite in2="hardAlpha" operator="out"/>
<feColorMatrix type="matrix" values="0 0 0 0 0 0 0 0 0 0 0 0 0 0 0 0 0 0 0.25 0"/>
<feBlend mode="normal" in2="BackgroundImageFix" result="effect1_dropShadow_12_15"/>
<feBlend mode="normal" in="SourceGraphic" in2="effect1_dropShadow_12_15" result="shape"/>
</filter>
<filter id="filter1_d_12_15" x="228" y="321" width="749" height="564" filterUnits="userSpaceOnUse" color-interpolation-filters="sRGB">
<feFlood flood-opacity="0" result="BackgroundImageFix"/>
<feColorMatrix in="SourceAlpha" type="matrix" values="0 0 0 0 0 0 0 0 0 0 0 0 0 0 0 0 0 0 127 0" result="hardAlpha"/>
<feOffset dy="4"/>
<feGaussianBlur stdDeviation="2"/>
<feComposite in2="hardAlpha" operator="out"/>
<feColorMatrix type="matrix" values="0 0 0 0 0 0 0 0 0 0 0 0 0 0 0 0 0 0 0.25 0"/>
<feBlend mode="normal" in2="BackgroundImageFix" result="effect1_dropShadow_12_15"/>
<feBlend mode="normal" in="SourceGraphic" in2="effect1_dropShadow_12_15" result="shape"/>
</filter>
</defs>
</svg>
