<svg width="1175" height="1175" viewBox="0 0 1175 1175" fill="none" xmlns="http://www.w3.org/2000/svg">
<path d="M1174.89 587.264C1174.89 262.929 911.877 0 587.445 0C263.01 0 0 262.929 0 587.264C0 862.667 189.674 1093.77 445.54 1157.24V766.731H324.41V587.264H445.54V509.934C445.54 310.052 536.03 217.406 732.331 217.406C769.552 217.406 833.77 224.71 860.041 231.993V394.665C846.179 393.207 822.093 392.481 792.179 392.481C695.863 392.481 658.642 428.961 658.642 523.792V587.264H850.524L817.557 766.731H658.642V1170.23C949.52 1135.11 1174.89 887.521 1174.89 587.264Z" fill="white"/>
<path d="M817.534 766.731L850.503 587.264H658.619V523.792C658.619 428.961 695.84 392.481 792.156 392.481C822.07 392.481 846.156 393.207 860.018 394.665V231.993C833.747 224.687 769.529 217.404 732.308 217.404C536.009 217.404 445.517 310.052 445.517 509.931V587.264H324.387V766.731H445.517V1157.24C490.963 1168.51 538.498 1174.53 587.421 1174.53C611.507 1174.53 635.263 1173.05 658.596 1170.23V766.731H817.534Z" fill="#EA5C5C"/>
</svg>
