<svg width="97" height="97" viewBox="0 0 97 97" fill="none" xmlns="http://www.w3.org/2000/svg">
<path d="M48.415 96.8301C74.8957 96.8301 96.8301 74.9425 96.8301 48.415C96.8301 21.9344 74.8957 0 48.3682 0C21.8875 0 0 21.9344 0 48.415C0 74.9425 21.9344 96.8301 48.415 96.8301ZM16.3102 30.6519C16.3102 40.8692 23.3405 46.6809 35.9481 46.6809C37.4947 46.6809 38.3852 47.9932 37.4478 49.4461C35.245 52.9144 34.542 54.836 34.542 57.3669C34.542 63.741 39.9787 66.9281 43.9157 68.4747L42.1815 75.7862C40.6349 82.3477 47.7589 85.4879 52.5863 80.3324L63.9285 68.0998C67.6779 64.0222 69.2715 60.9289 69.2715 57.5544C69.2715 55.0704 66.4125 50.0554 63.5067 47.3839C60.7414 44.7593 58.0231 44.3375 53.3362 44.3375H50.8991L48.3682 39.4163L55.3516 36.7917C59.3822 39.3694 61.3507 40.8224 63.6004 40.8224C67.9592 40.8224 69.6933 36.0418 66.5062 32.6204L59.1948 24.8871C58.3043 23.9966 58.3511 23.2467 59.101 22.3094C61.1632 20.0597 63.9285 16.8258 63.9285 13.17C63.9285 12.1858 63.741 11.2953 63.2254 10.3579C78.4108 16.4039 89.3311 31.2612 89.3311 48.415C89.3311 70.7713 70.7713 89.3311 48.415 89.3311C26.0588 89.3311 7.49894 70.7713 7.49894 48.415C7.49894 38.2915 11.2953 28.9178 17.5756 21.7001C16.7789 24.559 16.3102 27.6055 16.3102 30.6519Z" fill="#F0F0F0"/>
</svg>
