<svg width="1197" height="1197" viewBox="0 0 1197 1197" fill="none" xmlns="http://www.w3.org/2000/svg">
<path d="M598.5 1197C929.042 1197 1197 929.042 1197 598.5C1197 267.958 929.042 0 598.5 0C267.958 0 0 267.958 0 598.5C0 929.042 267.958 1197 598.5 1197Z" fill="white"/>
<path d="M598.715 306.952C693.743 306.952 704.997 307.369 742.369 309.036C777.102 310.564 795.858 316.399 808.362 321.262C824.894 327.653 836.842 335.433 849.207 347.798C861.711 360.301 869.352 372.11 875.743 388.643C880.606 401.147 886.441 420.042 887.969 454.636C889.636 492.147 890.053 503.4 890.053 598.29C890.053 693.319 889.636 704.573 887.969 741.945C886.441 776.678 880.606 795.434 875.743 807.937C869.352 824.47 861.572 836.418 849.207 848.783C836.704 861.287 824.894 868.928 808.362 875.319C795.858 880.182 776.963 886.017 742.369 887.545C704.858 889.212 693.605 889.629 598.715 889.629C503.686 889.629 492.432 889.212 455.06 887.545C420.327 886.017 401.571 880.182 389.068 875.319C372.535 868.928 360.587 861.148 348.222 848.783C335.718 836.279 328.077 824.47 321.686 807.937C316.823 795.434 310.988 776.539 309.46 741.945C307.793 704.434 307.376 693.18 307.376 598.29C307.376 503.261 307.793 492.008 309.46 454.636C310.988 419.903 316.823 401.147 321.686 388.643C328.077 372.11 335.857 360.162 348.222 347.798C360.726 335.294 372.535 327.653 389.068 321.262C401.571 316.399 420.466 310.564 455.06 309.036C492.432 307.369 503.686 306.952 598.715 306.952ZM598.715 242.905C502.157 242.905 490.07 243.321 452.142 244.989C414.353 246.656 388.373 252.769 365.866 261.521C342.387 270.691 322.52 282.778 302.791 302.645C282.924 322.373 270.837 342.24 261.668 365.581C252.915 388.226 246.802 414.068 245.135 451.857C243.468 489.924 243.051 502.011 243.051 598.568C243.051 695.125 243.468 707.212 245.135 745.14C246.802 782.93 252.915 808.91 261.668 831.417C270.837 854.896 282.924 874.763 302.791 894.491C322.52 914.22 342.387 926.446 365.727 935.476C388.373 944.229 414.214 950.342 452.003 952.009C489.931 953.676 502.018 954.093 598.576 954.093C695.133 954.093 707.22 953.676 745.148 952.009C782.937 950.342 808.917 944.229 831.424 935.476C854.765 926.446 874.632 914.22 894.36 894.491C914.088 874.763 926.314 854.896 935.345 831.556C944.097 808.91 950.21 783.069 951.877 745.279C953.545 707.351 953.961 695.264 953.961 598.707C953.961 502.15 953.545 490.063 951.877 452.135C950.21 414.346 944.097 388.365 935.345 365.859C926.592 342.24 914.505 322.373 894.638 302.645C874.91 282.917 855.042 270.691 831.702 261.66C809.056 252.908 783.215 246.795 745.426 245.127C707.359 243.321 695.272 242.905 598.715 242.905Z" fill="#EA5C5C"/>
<path d="M598.71 415.873C497.846 415.873 416.016 497.704 416.016 598.568C416.016 699.432 497.846 781.262 598.71 781.262C699.574 781.262 781.405 699.432 781.405 598.568C781.405 497.704 699.574 415.873 598.71 415.873ZM598.71 717.076C533.274 717.076 480.202 664.004 480.202 598.568C480.202 533.131 533.274 480.059 598.71 480.059C664.147 480.059 717.218 533.131 717.218 598.568C717.218 664.004 664.147 717.076 598.71 717.076Z" fill="#EA5C5C"/>
</svg>
