<svg width="1198" height="1197" viewBox="0 0 1198 1197" fill="none" xmlns="http://www.w3.org/2000/svg">
<circle cx="598.828" cy="598.5" r="598.5" fill="#EA5C5C"/>
<path d="M599.043 306.952C694.071 306.952 705.325 307.369 742.697 309.036C777.43 310.564 796.186 316.399 808.69 321.262C825.222 327.653 837.17 335.433 849.535 347.798C862.039 360.301 869.68 372.11 876.071 388.643C880.934 401.147 886.769 420.042 888.297 454.636C889.964 492.147 890.381 503.4 890.381 598.29C890.381 693.319 889.964 704.573 888.297 741.945C886.769 776.678 880.934 795.434 876.071 807.937C869.68 824.47 861.9 836.418 849.535 848.783C837.032 861.287 825.222 868.928 808.69 875.319C796.186 880.182 777.291 886.017 742.697 887.545C705.186 889.212 693.933 889.629 599.043 889.629C504.014 889.629 492.76 889.212 455.388 887.545C420.655 886.017 401.899 880.182 389.396 875.319C372.863 868.928 360.915 861.148 348.55 848.783C336.046 836.279 328.405 824.47 322.014 807.937C317.151 795.434 311.316 776.539 309.788 741.945C308.121 704.434 307.704 693.18 307.704 598.29C307.704 503.261 308.121 492.008 309.788 454.636C311.316 419.903 317.151 401.147 322.014 388.643C328.405 372.11 336.185 360.162 348.55 347.798C361.054 335.294 372.863 327.653 389.396 321.262C401.899 316.399 420.794 310.564 455.388 309.036C492.76 307.369 504.014 306.952 599.043 306.952ZM599.043 242.905C502.485 242.905 490.398 243.321 452.47 244.989C414.681 246.656 388.701 252.769 366.194 261.521C342.715 270.691 322.848 282.778 303.119 302.645C283.252 322.373 271.165 342.24 261.996 365.581C253.243 388.226 247.13 414.068 245.463 451.857C243.796 489.924 243.379 502.011 243.379 598.568C243.379 695.125 243.796 707.212 245.463 745.14C247.13 782.93 253.243 808.91 261.996 831.417C271.165 854.896 283.252 874.763 303.119 894.491C322.848 914.22 342.715 926.446 366.055 935.476C388.701 944.229 414.542 950.342 452.331 952.009C490.259 953.676 502.346 954.093 598.904 954.093C695.461 954.093 707.548 953.676 745.476 952.009C783.265 950.342 809.245 944.229 831.752 935.476C855.093 926.446 874.96 914.22 894.688 894.491C914.416 874.763 926.642 854.896 935.673 831.556C944.425 808.91 950.538 783.069 952.205 745.279C953.873 707.351 954.289 695.264 954.289 598.707C954.289 502.15 953.873 490.063 952.205 452.135C950.538 414.346 944.425 388.365 935.673 365.859C926.92 342.24 914.833 322.373 894.966 302.645C875.238 282.917 855.37 270.691 832.03 261.66C809.384 252.908 783.543 246.795 745.754 245.127C707.687 243.321 695.6 242.905 599.043 242.905Z" fill="#FFCFC2"/>
<path d="M599.038 415.873C498.174 415.873 416.344 497.704 416.344 598.568C416.344 699.432 498.174 781.262 599.038 781.262C699.902 781.262 781.733 699.432 781.733 598.568C781.733 497.704 699.902 415.873 599.038 415.873ZM599.038 717.076C533.602 717.076 480.53 664.004 480.53 598.568C480.53 533.131 533.602 480.059 599.038 480.059C664.475 480.059 717.546 533.131 717.546 598.568C717.546 664.004 664.475 717.076 599.038 717.076Z" fill="#FFCFC2"/>
<path d="M831.585 408.65C831.585 432.269 812.412 451.302 788.933 451.302C765.315 451.302 746.281 432.13 746.281 408.65C746.281 385.032 765.454 365.999 788.933 365.999C812.412 365.999 831.585 385.171 831.585 408.65Z" fill="#FFCFC2"/>
</svg>
