<svg width="153" height="203" viewBox="0 0 153 203" fill="none" xmlns="http://www.w3.org/2000/svg">
<path d="M33.5574 11.6981H118.006C117.408 4.09862 112.883 0 104.6 0H46.8779C38.5953 0 34.0698 4.09862 33.5574 11.6981ZM18.8707 36.546H132.607C131.412 28.4342 127.313 23.7378 118.177 23.7378H33.3013C24.1648 23.7378 20.0661 28.4342 18.8707 36.546ZM28.0072 202.198H126.203C142.512 202.198 152.076 192.635 152.076 174.447V77.7883C152.076 59.6007 142.512 50.1227 124.069 50.1227H28.0072C9.56344 50.1227 0 59.5153 0 77.7883V174.447C0 192.72 9.56344 202.198 28.0072 202.198ZM101.185 137.816C91.0234 137.816 82.4847 128.85 82.4847 117.323C82.3993 105.966 91.1942 97.1714 101.27 97.1714C111.346 97.1714 119.885 105.796 119.885 117.238C119.885 128.85 111.346 137.816 101.185 137.816ZM47.4756 138.926C38.6807 138.926 31.1666 131.156 31.1666 120.995C31.0812 111.09 38.6807 103.49 47.4756 103.49C56.2706 103.49 63.7847 111.004 63.7847 120.909C63.7847 131.156 56.356 138.926 47.4756 138.926ZM28.2634 185.975C19.9808 185.975 15.8821 181.962 15.8821 173.423V163.518C21.0908 154.637 32.5328 146.782 47.4756 146.782C54.6482 146.782 60.3692 148.489 65.5779 151.649C57.2952 157.882 51.745 169.922 51.745 178.888C51.745 181.705 52.172 184.182 53.3674 185.975H28.2634ZM66.3464 185.975C64.8094 185.719 62.5893 183.328 62.5893 179.229C62.5893 164.115 77.5322 146.952 101.185 146.952C116.725 146.952 130.046 154.723 136.279 165.311V173.423C136.279 181.962 131.327 185.975 123.983 185.975H66.3464Z" fill="#DC4949"/>
</svg>
