<svg width="49" height="49" viewBox="0 0 49 49" fill="none" xmlns="http://www.w3.org/2000/svg">
<path d="M24.8416 48.9645C38.0242 48.9645 48.9435 38.0685 48.9435 24.8626C48.9435 11.6801 38.0242 0.760742 24.8183 0.760742C11.6358 0.760742 0.739746 11.6801 0.739746 24.8626C0.739746 38.0685 11.6591 48.9645 24.8416 48.9645ZM8.85925 16.0198C8.85925 21.1062 12.359 23.9993 18.6353 23.9993C19.4053 23.9993 19.8486 24.6526 19.382 25.3759C18.2854 27.1025 17.9354 28.0591 17.9354 29.319C17.9354 32.4922 20.6419 34.0787 22.6018 34.8487L21.7385 38.4885C20.9685 41.7549 24.515 43.3182 26.9182 40.7517L32.5645 34.662C34.431 32.6321 35.2243 31.0922 35.2243 29.4123C35.2243 28.1758 33.8011 25.6792 32.3545 24.3493C30.9779 23.0427 29.6247 22.8327 27.2915 22.8327H26.0782L24.8183 20.3829L28.2947 19.0763C30.3013 20.3596 31.2812 21.0828 32.4012 21.0828C34.571 21.0828 35.4343 18.703 33.8477 16.9998L30.208 13.15C29.7647 12.7067 29.788 12.3334 30.1613 11.8667C31.1879 10.7468 32.5645 9.1369 32.5645 7.31701C32.5645 6.82704 32.4712 6.38374 32.2145 5.9171C39.7741 8.92692 45.2104 16.3231 45.2104 24.8626C45.2104 35.9919 35.9709 45.2314 24.8416 45.2314C13.7123 45.2314 4.47285 35.9919 4.47285 24.8626C4.47285 19.8229 6.36274 15.1565 9.48922 11.5634C9.09257 12.9867 8.85925 14.5032 8.85925 16.0198Z" fill="#FFEBE6"/>
</svg>
