<svg width="24" height="28" viewBox="0 0 24 28" fill="none" xmlns="http://www.w3.org/2000/svg">
<path d="M1.77177 24.2419C0.824922 24.2419 0.137695 24.9444 0.137695 25.9065C0.137695 26.8686 0.824922 27.5711 1.77177 27.5711H21.8999C22.862 27.5711 23.5645 26.8686 23.5645 25.9065C23.5645 24.9444 22.862 24.2419 21.8999 24.2419H12.2023C12.5536 24.1656 12.859 23.9823 13.1186 23.7227L22.8467 14.1015C23.2132 13.735 23.3965 13.3074 23.3965 12.8645C23.3965 11.9024 22.694 11.1999 21.7624 11.1999C21.2737 11.1999 20.8461 11.3984 20.5407 11.7038L17.41 14.7887L13.3935 19.187L13.5462 15.9799V1.88415C13.5462 0.845673 12.859 0.158447 11.8511 0.158447C10.8432 0.158447 10.1407 0.845673 10.1407 1.88415V15.9799L10.3086 19.2022L6.29219 14.7887L3.17676 11.7038C2.85606 11.3984 2.42845 11.1999 1.95503 11.1999C1.00818 11.1999 0.320956 11.9024 0.320956 12.8645C0.320956 13.3074 0.504216 13.735 0.870737 14.1015L10.5835 23.7227C10.8432 23.9823 11.1486 24.1656 11.4846 24.2419H1.77177Z" fill="#EA5C5C"/>
</svg>
