<svg width="34" height="33" viewBox="0 0 34 33" fill="none" xmlns="http://www.w3.org/2000/svg">
<path d="M0.990609 11.4609H7.93001V32.9179H0.990609V11.4609ZM4.46032 0.796387C6.6788 0.796387 8.48021 2.52969 8.48021 4.65575C8.48021 6.78182 6.6788 8.52366 4.46032 8.52366C2.24184 8.52366 0.44043 6.79036 0.44043 4.65575C0.44043 2.52115 2.24184 0.796387 4.46032 0.796387Z" fill="#EA5C5C"/>
<path d="M12.2794 11.4605H18.926V14.3978H19.0147C19.9376 12.7071 22.2004 10.9312 25.5814 10.9312C32.6007 10.9312 33.8874 15.3711 33.8874 21.1516V32.9176H26.9657V22.4836C26.9657 19.9904 26.9125 16.797 23.3629 16.797C19.8133 16.797 19.201 19.5037 19.201 22.3043V32.9176H12.2705V11.4605H12.2794Z" fill="#EA5C5C"/>
</svg>
