<svg width="31" height="30" viewBox="0 0 31 30" fill="none" xmlns="http://www.w3.org/2000/svg">
<path d="M15.8147 2.71328C19.8054 2.71328 20.278 2.73078 21.8475 2.80079C23.3061 2.86497 24.0937 3.11001 24.6188 3.31422C25.3131 3.5826 25.8149 3.90933 26.3341 4.42859C26.8592 4.95368 27.1801 5.44961 27.4485 6.1439C27.6527 6.66899 27.8977 7.46247 27.9619 8.91524C28.0319 10.4905 28.0494 10.9631 28.0494 14.948C28.0494 18.9387 28.0319 19.4113 27.9619 20.9808C27.8977 22.4394 27.6527 23.227 27.4485 23.7521C27.1801 24.4464 26.8534 24.9481 26.3341 25.4674C25.809 25.9925 25.3131 26.3134 24.6188 26.5818C24.0937 26.786 23.3002 27.031 21.8475 27.0952C20.2722 27.1652 19.7996 27.1827 15.8147 27.1827C11.824 27.1827 11.3514 27.1652 9.78195 27.0952C8.32335 27.031 7.53571 26.786 7.01061 26.5818C6.31632 26.3134 5.81456 25.9867 5.2953 25.4674C4.7702 24.9423 4.44931 24.4464 4.18093 23.7521C3.97672 23.227 3.73168 22.4335 3.6675 20.9808C3.59749 19.4055 3.57999 18.9329 3.57999 14.948C3.57999 10.9573 3.59749 10.4847 3.6675 8.91524C3.73168 7.45664 3.97672 6.66899 4.18093 6.1439C4.44931 5.44961 4.77604 4.94785 5.2953 4.42859C5.82039 3.90349 6.31632 3.5826 7.01061 3.31422C7.53571 3.11001 8.32918 2.86497 9.78195 2.80079C11.3514 2.73078 11.824 2.71328 15.8147 2.71328ZM15.8147 0.0236206C11.7598 0.0236206 11.2522 0.0411238 9.65942 0.111137C8.07247 0.181149 6.98144 0.437862 6.03627 0.805429C5.05025 1.1905 4.21594 1.69809 3.38745 2.53241C2.55313 3.36089 2.04554 4.19521 1.66047 5.17539C1.2929 6.1264 1.03619 7.21159 0.966178 8.79855C0.896165 10.3972 0.878662 10.9048 0.878662 14.9597C0.878662 19.0146 0.896165 19.5222 0.966178 21.115C1.03619 22.7019 1.2929 23.7929 1.66047 24.7381C2.04554 25.7241 2.55313 26.5584 3.38745 27.3869C4.21594 28.2154 5.05025 28.7288 6.03043 29.1081C6.98144 29.4756 8.06663 29.7323 9.65359 29.8024C11.2464 29.8724 11.754 29.8899 15.8089 29.8899C19.8638 29.8899 20.3714 29.8724 21.9642 29.8024C23.5511 29.7323 24.6421 29.4756 25.5873 29.1081C26.5675 28.7288 27.4018 28.2154 28.2303 27.3869C29.0588 26.5584 29.5722 25.7241 29.9514 24.7439C30.319 23.7929 30.5757 22.7077 30.6457 21.1208C30.7157 19.528 30.7333 19.0204 30.7333 14.9655C30.7333 10.9106 30.7157 10.403 30.6457 8.81022C30.5757 7.22326 30.319 6.13223 29.9514 5.18706C29.5839 4.19521 29.0763 3.36089 28.242 2.53241C27.4135 1.70393 26.5792 1.1905 25.599 0.811264C24.648 0.443697 23.5628 0.186984 21.9758 0.116971C20.3772 0.0411238 19.8696 0.0236206 15.8147 0.0236206Z" fill="#EA5C5C"/>
<path d="M15.8147 7.28741C11.5789 7.28741 8.14246 10.7239 8.14246 14.9596C8.14246 19.1954 11.5789 22.6319 15.8147 22.6319C20.0505 22.6319 23.4869 19.1954 23.4869 14.9596C23.4869 10.7239 20.0505 7.28741 15.8147 7.28741ZM15.8147 19.9364C13.0667 19.9364 10.8379 17.7076 10.8379 14.9596C10.8379 12.2116 13.0667 9.9829 15.8147 9.9829C18.5627 9.9829 20.7914 12.2116 20.7914 14.9596C20.7914 17.7076 18.5627 19.9364 15.8147 19.9364Z" fill="#EA5C5C"/>
<path d="M25.5814 6.98409C25.5814 7.97594 24.7763 8.77526 23.7902 8.77526C22.7984 8.77526 21.9991 7.97011 21.9991 6.98409C21.9991 5.99225 22.8042 5.19293 23.7902 5.19293C24.7763 5.19293 25.5814 5.99808 25.5814 6.98409Z" fill="#EA5C5C"/>
</svg>
