<svg width="36" height="37" viewBox="0 0 36 37" fill="none" xmlns="http://www.w3.org/2000/svg">
<path d="M29.9886 36.7554C26.3912 36.7338 23.6465 33.3228 24.1775 29.516C24.2448 29.0267 24.1027 28.8468 23.7063 28.6957C19.5929 27.1053 15.4795 25.5078 11.3736 23.8886C11.0071 23.7447 10.8874 23.903 10.7004 24.1693C9.21962 26.2418 7.23771 27.1125 4.86689 26.652C2.44372 26.1842 0.865668 24.5507 0.207523 21.996C-0.53289 19.1392 0.760963 16.1024 3.24396 14.7207C5.69705 13.3607 8.74845 14.0227 10.4836 16.3543C10.8351 16.822 11.0669 16.8148 11.5082 16.5558C15.644 14.1522 19.7799 11.7703 23.9307 9.39557C24.2971 9.18688 24.3719 8.99978 24.2896 8.56801C23.7661 5.94142 24.4691 3.7178 26.4286 2.07708C28.3357 0.472338 30.4897 0.249257 32.6586 1.40784C34.8648 2.58801 35.9568 4.61013 35.9493 7.26551C35.9418 9.82015 34.4086 12.1085 32.1425 13.0584C29.9138 13.9939 27.3635 13.375 25.7331 11.4537C25.419 11.0867 25.217 11.0939 24.8506 11.3098C20.6549 13.7421 16.4443 16.16 12.2411 18.5779C11.8896 18.7794 11.6503 18.9377 11.7849 19.4774C11.9345 20.0603 11.8821 20.7007 11.7998 21.3052C11.7625 21.6003 11.8073 21.7514 12.0915 21.8593C16.3096 23.4928 20.5203 25.1336 24.7309 26.7815C25.0899 26.9254 25.2021 26.6951 25.3666 26.4649C27.3485 23.7591 30.8487 23.1978 33.4438 25.1624C35.5379 26.7527 36.4653 29.6528 35.7025 32.229C34.8873 34.9779 32.6436 36.7482 30.011 36.7338L29.9886 36.7554Z" fill="#EA5C5C"/>
</svg>
