<svg width="39" height="31" viewBox="0 0 39 31" fill="none" xmlns="http://www.w3.org/2000/svg">
<path d="M38.3557 4.07606C37.1311 4.60544 35.7823 4.9299 34.4601 5.14336C35.0901 5.0409 36.0041 3.94799 36.3768 3.51253C36.9448 2.83799 37.4062 2.06953 37.6724 1.24131C37.7079 1.173 37.7345 1.09615 37.6724 1.04492C37.5837 1.01077 37.5305 1.02784 37.4683 1.062C35.9953 1.82192 34.469 2.37691 32.845 2.76114C32.7119 2.7953 32.6143 2.76114 32.5256 2.67576C32.3925 2.53061 32.2682 2.39399 32.1174 2.27445C31.4341 1.71946 30.7064 1.27546 29.8811 0.950999C28.7985 0.524078 27.6183 0.34477 26.4469 0.421616C25.3111 0.489923 24.193 0.797307 23.1902 1.30961C22.1786 1.81338 21.2823 2.52207 20.5635 3.37591C19.8181 4.25537 19.2768 5.29705 18.9928 6.39851C18.7266 7.46581 18.7444 8.51604 18.913 9.59188C18.9396 9.77119 18.913 9.7968 18.7532 9.77119C12.4084 8.86611 7.14612 6.68028 2.87776 1.99269C2.69141 1.78776 2.5938 1.78776 2.44295 2.00976C0.570547 4.7079 1.48455 9.03688 3.81839 11.163C4.12898 11.4447 4.44845 11.7265 4.79453 11.9912C4.6703 12.0168 3.11735 11.8546 1.73302 11.163C1.54666 11.052 1.45794 11.1117 1.44019 11.3166C1.42244 11.6069 1.44019 11.8802 1.49343 12.1961C1.84839 14.9284 3.8184 17.4558 6.51608 18.4377C6.83554 18.5658 7.19049 18.6768 7.53657 18.7365C6.92427 18.8646 6.29424 18.9585 4.52833 18.8219C4.30648 18.7792 4.22661 18.8902 4.30648 19.0866C5.62869 22.5532 8.48609 23.5864 10.6247 24.1755C10.9087 24.2267 11.2015 24.2267 11.4855 24.2865C11.4677 24.3121 11.45 24.3121 11.4322 24.3377C10.7223 25.3794 8.26423 26.1479 7.1195 26.5407C5.03412 27.2408 2.77127 27.5567 0.570533 27.3433C0.215575 27.292 0.144587 27.3006 0.046974 27.3433C-0.0506392 27.403 0.0381142 27.4799 0.144601 27.5653C0.588298 27.847 1.04972 28.1032 1.51117 28.3423C2.91325 29.0509 4.36859 29.623 5.88604 30.0243C13.7572 32.1162 22.6134 30.5793 28.5234 24.9354C33.1645 20.504 34.7884 14.3819 34.7884 8.25989C34.7884 8.02081 35.0813 7.8842 35.2587 7.76466C36.4656 6.89374 37.4417 5.85205 38.338 4.68229C38.5421 4.4176 38.5421 4.18706 38.5421 4.09314V4.05898C38.5421 3.96506 38.5421 3.99068 38.3824 4.05898L38.3557 4.07606Z" fill="#EA5C5C"/>
</svg>
