<svg width="41" height="39" viewBox="0 0 41 39" fill="none" xmlns="http://www.w3.org/2000/svg">
<path d="M3.97532 28.7051C3.94869 31.779 6.0252 34.3747 8.92698 35.2883C11.2253 36.014 13.4083 35.5957 15.3872 34.2551C15.6357 34.0844 15.8664 33.888 16.0882 33.683C17.1531 32.667 18.218 31.6509 19.274 30.6178C19.833 30.0713 20.4897 30.0201 21.1819 30.2506C21.8474 30.4726 22.1402 31.0361 22.1757 31.6509C22.1935 31.9924 22.0071 32.4364 21.7587 32.6926C20.5074 33.9563 19.2562 35.22 17.9163 36.3897C16.665 37.4826 15.1742 38.2255 13.4793 38.5073C12.6185 38.6524 11.74 38.789 10.8704 38.7976C9.00683 38.8061 7.28529 38.2511 5.68798 37.329C4.00194 36.347 2.72409 34.998 1.81895 33.3415C1.25989 32.334 0.949311 31.2325 0.762959 30.0884C0.443497 28.1075 0.789577 26.2205 1.6326 24.4359C2.05855 23.5394 2.65311 22.6599 3.36302 21.9513C5.65249 19.6459 8.00409 17.4003 10.3823 15.1803C11.74 13.9081 13.4261 13.1652 15.2896 12.8066C17.304 12.4224 19.274 12.6017 21.1996 13.3018C22.6461 13.8227 23.8973 14.6167 24.9533 15.6926C25.4502 16.1964 25.3881 17.2893 24.8645 17.7845C24.1901 18.4078 23.2051 18.4676 22.5928 17.904C21.7143 17.0929 20.7293 16.4696 19.5491 16.1793C16.8159 15.5133 14.3223 15.9061 12.2547 17.8614C10.1959 19.8081 8.18156 21.789 6.13168 23.7358C4.98694 24.8202 3.85996 26.8523 3.98419 28.7137L3.97532 28.7051Z" fill="#EA5C5C"/>
<path d="M29.7802 0.553866C32.3271 0.511173 34.5722 1.31378 36.5155 2.81655C38.3879 4.251 39.6392 6.13799 40.1272 8.40921C40.7928 11.5514 40.1272 14.4373 38.0862 16.9989C37.8644 17.2721 37.5804 17.4941 37.3231 17.7417C35.1223 19.8507 32.9482 21.9853 30.7297 24.0687C29.3277 25.3836 27.6416 26.2545 25.6982 26.5277C24.5712 26.6814 23.4087 26.8266 22.2906 26.7071C20.5513 26.5192 18.9274 25.8874 17.5165 24.8542C17.0994 24.5468 16.6823 24.2309 16.3096 23.8894C15.5109 23.1636 15.6263 21.9853 16.4693 21.362C16.8687 21.0717 17.9513 21.0888 18.3861 21.4047C18.9452 21.8145 19.4776 22.2842 20.081 22.6171C21.1991 23.249 22.4326 23.5991 23.7371 23.5393C25.6272 23.4539 27.3221 22.8733 28.6887 21.5584C30.8273 19.5092 32.966 17.4599 35.0957 15.3936C36.3736 14.1556 36.9947 12.6528 37.048 10.8854C37.119 8.74221 36.3558 6.97476 34.723 5.53177C33.738 4.66085 32.5933 4.10585 31.2533 3.90946C29.6116 3.67039 28.0143 3.76431 26.5324 4.54131C25.9467 4.84869 25.3965 5.25 24.9084 5.68546C23.8258 6.66738 22.7787 7.67491 21.7582 8.70806C21.1459 9.3399 19.9657 9.38259 19.3445 8.76783C18.7677 8.19575 18.7144 7.08576 19.4243 6.44538C20.6223 5.35246 21.7493 4.17416 22.9562 3.08124C24.234 1.92855 25.787 1.20278 27.4908 0.84417C28.245 0.68194 29.0348 0.647788 29.798 0.553866H29.7802Z" fill="#EA5C5C"/>
</svg>
