<svg width="91" height="76" viewBox="0 0 91 76" fill="none" xmlns="http://www.w3.org/2000/svg">
<path d="M90.244 37.7051C90.2401 33.7479 89.1156 29.8727 87.0008 26.5279C84.886 23.1832 81.8673 20.5057 78.294 18.8053V18.2863C78.2905 14.4369 77.048 10.6909 74.7503 7.60257C72.4526 4.51421 69.2217 2.24757 65.5357 1.13801C61.8498 0.0284454 57.9045 0.134921 54.2838 1.44168C50.663 2.74843 47.5591 5.18605 45.4313 8.39384C43.3035 5.18605 40.1996 2.74843 36.5788 1.44168C32.9581 0.134921 29.0128 0.0284454 25.3268 1.13801C21.6409 2.24757 18.41 4.51421 16.1123 7.60257C13.8145 10.6909 12.572 14.4369 12.5686 18.2863V18.8053C8.9923 20.5011 5.97065 23.1769 3.85478 26.5218C1.73892 29.8667 0.615723 33.7434 0.615723 37.7014C0.615723 41.6593 1.73892 45.536 3.85478 48.881C5.97065 52.2259 8.9923 54.9017 12.5686 56.5974V57.124C12.572 60.9733 13.8145 64.7193 16.1123 67.8077C18.41 70.896 21.6409 73.1627 25.3268 74.2722C29.0128 75.3818 32.9581 75.2753 36.5788 73.9686C40.1996 72.6618 43.3035 70.2242 45.4313 67.0164C47.5591 70.2242 50.663 72.6618 54.2838 73.9686C57.9045 75.2753 61.8498 75.3818 65.5357 74.2722C69.2217 73.1627 72.4526 70.896 74.7503 67.8077C77.048 64.7193 78.2905 60.9733 78.294 57.124V56.5974C81.8667 54.8983 84.8851 52.2221 87 48.8787C89.1148 45.5353 90.2396 41.6613 90.244 37.7051ZM30.4937 69.0741C27.5471 69.0736 24.7045 67.9846 22.5119 66.016C20.3193 64.0474 18.9313 61.3382 18.6146 58.4086C19.5807 58.5464 20.5553 58.6163 21.5311 58.6177H24.5187C25.311 58.6177 26.0709 58.303 26.6312 57.7427C27.1914 57.1824 27.5062 56.4226 27.5062 55.6302C27.5062 54.8379 27.1914 54.078 26.6312 53.5177C26.0709 52.9575 25.311 52.6427 24.5187 52.6427H21.5311C18.0042 52.6468 14.5896 51.4029 11.8918 49.131C9.19407 46.8592 7.38716 43.7061 6.79103 40.2299C6.19489 36.7538 6.84799 33.1788 8.63469 30.1379C10.4214 27.097 13.2264 24.7865 16.5532 23.6152C17.1353 23.4092 17.6392 23.0278 17.9956 22.5235C18.3521 22.0193 18.5435 21.417 18.5436 20.7995V18.2863C18.5436 15.1169 19.8026 12.0774 22.0437 9.83628C24.2848 7.59521 27.3243 6.33619 30.4937 6.33619C33.6631 6.33619 36.7026 7.59521 38.9437 9.83628C41.1847 12.0774 42.4438 15.1169 42.4438 18.2863V43.7772C39.1632 40.8266 34.906 39.1956 30.4937 39.1989C29.7014 39.1989 28.9415 39.5136 28.3812 40.0739C27.8209 40.6342 27.5062 41.3941 27.5062 42.1864C27.5062 42.9787 27.8209 43.7386 28.3812 44.2989C28.9415 44.8592 29.7014 45.1739 30.4937 45.1739C33.6631 45.1739 36.7026 46.4329 38.9437 48.674C41.1847 50.9151 42.4438 53.9546 42.4438 57.124C42.4438 60.2933 41.1847 63.3329 38.9437 65.574C36.7026 67.815 33.6631 69.0741 30.4937 69.0741ZM69.3314 52.6427H66.3439C65.5516 52.6427 64.7917 52.9575 64.2314 53.5177C63.6711 54.078 63.3564 54.8379 63.3564 55.6302C63.3564 56.4226 63.6711 57.1824 64.2314 57.7427C64.7917 58.303 65.5516 58.6177 66.3439 58.6177H69.3314C70.3073 58.6163 71.2819 58.5464 72.248 58.4086C71.9998 60.704 71.092 62.8784 69.6343 64.6688C68.1766 66.4593 66.2315 67.7891 64.0341 68.4976C61.8367 69.206 59.4811 69.2627 57.2521 68.6609C55.0231 68.0591 53.0162 66.8244 51.474 65.1062C49.9318 63.388 48.9204 61.2599 48.562 58.9791C48.2036 56.6983 48.5135 54.3625 49.4544 52.2541C50.3953 50.1457 51.9268 48.3551 53.8637 47.0986C55.8006 45.8421 58.0601 45.1736 60.3689 45.1739C61.1612 45.1739 61.9211 44.8592 62.4814 44.2989C63.0416 43.7386 63.3564 42.9787 63.3564 42.1864C63.3564 41.3941 63.0416 40.6342 62.4814 40.0739C61.9211 39.5136 61.1612 39.1989 60.3689 39.1989C55.9566 39.1956 51.6994 40.8266 48.4188 43.7772V18.2863C48.4188 15.1169 49.6778 12.0774 51.9189 9.83628C54.16 7.59521 57.1995 6.33619 60.3689 6.33619C63.5382 6.33619 66.5778 7.59521 68.8188 9.83628C71.0599 12.0774 72.3189 15.1169 72.3189 18.2863V20.7995C72.319 21.417 72.5105 22.0193 72.8669 22.5235C73.2234 23.0278 73.7273 23.4092 74.3094 23.6152C77.6361 24.7865 80.4412 27.097 82.2279 30.1379C84.0146 33.1788 84.6677 36.7538 84.0715 40.2299C83.4754 43.7061 81.6685 46.8592 78.9707 49.131C76.273 51.4029 72.8583 52.6468 69.3314 52.6427ZM75.3065 33.2238C75.3065 34.0162 74.9917 34.7761 74.4314 35.3363C73.8712 35.8966 73.1113 36.2114 72.3189 36.2114H70.8252C67.2597 36.2114 63.8402 34.795 61.319 32.2738C58.7978 29.7525 57.3814 26.3331 57.3814 22.7675V21.2738C57.3814 20.4814 57.6961 19.7215 58.2564 19.1613C58.8166 18.601 59.5765 18.2863 60.3689 18.2863C61.1612 18.2863 61.9211 18.601 62.4814 19.1613C63.0416 19.7215 63.3564 20.4814 63.3564 21.2738V22.7675C63.3564 24.7484 64.1433 26.6481 65.544 28.0488C66.9446 29.4494 68.8443 30.2363 70.8252 30.2363H72.3189C73.1113 30.2363 73.8712 30.5511 74.4314 31.1113C74.9917 31.6716 75.3065 32.4315 75.3065 33.2238ZM20.0374 36.2114H18.5436C17.7513 36.2114 16.9914 35.8966 16.4311 35.3363C15.8709 34.7761 15.5561 34.0162 15.5561 33.2238C15.5561 32.4315 15.8709 31.6716 16.4311 31.1113C16.9914 30.5511 17.7513 30.2363 18.5436 30.2363H20.0374C22.0182 30.2363 23.9179 29.4494 25.3186 28.0488C26.7193 26.6481 27.5062 24.7484 27.5062 22.7675V21.2738C27.5062 20.4814 27.8209 19.7215 28.3812 19.1613C28.9415 18.601 29.7014 18.2863 30.4937 18.2863C31.286 18.2863 32.0459 18.601 32.6062 19.1613C33.1665 19.7215 33.4812 20.4814 33.4812 21.2738V22.7675C33.4812 26.3331 32.0648 29.7525 29.5436 32.2738C27.0224 34.795 23.6029 36.2114 20.0374 36.2114Z" fill="#EA5C5C"/>
</svg>
