<svg width="82" height="66" viewBox="0 0 82 66" fill="none" xmlns="http://www.w3.org/2000/svg">
<path d="M18.0066 61.3551C19.1793 61.3551 20.0728 60.7966 21.4689 59.5122L29.3708 52.2526C27.8071 50.9961 26.4669 48.874 26.4669 44.5461V24.8892C26.4669 16.0938 31.8558 10.8166 40.6512 10.8166H60.7549L60.7269 9.95104C60.2243 4.3946 56.5387 0.653076 49.8933 0.653076H11.082C4.38074 0.653076 0.164551 4.56213 0.164551 11.375V39.3527C0.164551 46.0818 4.29698 50.2143 10.8865 50.2143H15.354V58.3116C15.354 60.1544 16.3313 61.3551 18.0066 61.3551ZM65.0548 65.3758C66.758 65.3758 67.7353 64.1752 67.7353 62.3323V54.235H70.6113C77.2008 54.235 81.3332 50.1026 81.3332 43.3734V25.6152C81.3332 18.8022 77.117 14.8932 70.4158 14.8932H41.4888C34.5363 14.8932 30.5714 18.7743 30.5714 25.7269V43.3734C30.5714 50.1584 34.5642 54.235 41.4888 54.235H51.3173L61.6204 63.533C63.0165 64.8174 63.8821 65.3758 65.0548 65.3758Z" fill="#EA5C5C"/>
</svg>
