<svg width="85" height="72" viewBox="0 0 85 72" fill="none" xmlns="http://www.w3.org/2000/svg">
<path d="M84.0427 37.8816L72.0926 8.00642C71.8295 7.34836 71.341 6.80529 70.7143 6.47419C70.0877 6.14309 69.3638 6.04555 68.6719 6.19897L45.4178 11.3674V3.1517C45.4178 2.35936 45.103 1.59948 44.5428 1.03921C43.9825 0.478941 43.2226 0.164185 42.4303 0.164185C41.6379 0.164185 40.8781 0.478941 40.3178 1.03921C39.7575 1.59948 39.4428 2.35936 39.4428 3.1517V12.7043L14.8928 18.1602C14.4195 18.2648 13.9787 18.483 13.6085 18.7959C13.2383 19.1088 12.9498 19.5072 12.768 19.9565V19.9789L0.817898 49.8317C0.674943 50.1878 0.602646 50.5683 0.605038 50.952C0.605038 59.6569 9.76925 62.902 15.5426 62.902C21.316 62.902 30.4802 59.6569 30.4802 50.952C30.4826 50.5683 30.4103 50.1878 30.2674 49.8317L19.6206 23.2315L39.4428 18.8362V65.8896H33.4677C32.6754 65.8896 31.9155 66.2043 31.3552 66.7646C30.795 67.3249 30.4802 68.0847 30.4802 68.8771C30.4802 69.6694 30.795 70.4293 31.3552 70.9896C31.9155 71.5498 32.6754 71.8646 33.4677 71.8646H51.3928C52.1852 71.8646 52.9451 71.5498 53.5053 70.9896C54.0656 70.4293 54.3804 69.6694 54.3804 68.8771C54.3804 68.0847 54.0656 67.3249 53.5053 66.7646C52.9451 66.2043 52.1852 65.8896 51.3928 65.8896H45.4178V17.4993L64.4632 13.2719L54.5932 37.8816C54.4503 38.2377 54.378 38.6182 54.3804 39.0019C54.3804 47.7068 63.5446 50.952 69.3179 50.952C75.0913 50.952 84.2555 47.7068 84.2555 39.0019C84.2579 38.6182 84.1856 38.2377 84.0427 37.8816ZM15.5426 56.927C12.7306 56.927 7.04314 55.5789 6.60621 51.4599L15.5426 29.1207L24.479 51.4599C24.0421 55.5789 18.3546 56.927 15.5426 56.927ZM69.3179 44.9769C66.5059 44.9769 60.8185 43.6288 60.3815 39.5098L69.3179 17.1706L78.2544 39.5098C77.8174 43.6288 72.1299 44.9769 69.3179 44.9769Z" fill="#EA5C5C"/>
</svg>
