<svg width="113" height="73" viewBox="0 0 113 73" fill="none" xmlns="http://www.w3.org/2000/svg">
<path d="M34.2178 35.6492C42.9433 35.6492 50.2744 27.9198 50.2744 17.9193C50.2744 8.15784 42.8636 0.707275 34.2178 0.707275C25.5719 0.707275 18.1214 8.27737 18.1612 17.999C18.1612 27.9198 25.5321 35.6492 34.2178 35.6492ZM79.3196 35.6492C88.0053 35.6492 95.3762 27.9198 95.3762 17.9193C95.3762 8.15784 87.9655 0.707275 79.3196 0.707275C70.6339 0.707275 63.2232 8.27737 63.263 17.999C63.263 27.9198 70.5941 35.6492 79.3196 35.6492ZM9.356 72.7029H59.0397C65.6138 72.7029 67.8848 70.7107 67.8848 67.0851C67.8848 56.8057 54.8563 42.7014 34.2178 42.7014C13.5395 42.7014 0.550781 56.8057 0.550781 67.0851C0.550781 70.7107 2.82181 72.7029 9.356 72.7029ZM79.2798 42.7014C72.6261 42.7014 66.7692 44.2154 61.9084 46.5661C68.8809 52.0246 73.3432 59.3157 73.3432 67.0851C73.3432 69.2764 72.8651 71.149 71.9089 72.7029H104.142C110.676 72.7029 112.947 70.7107 112.947 67.0851C112.947 56.8057 99.9581 42.7014 79.2798 42.7014Z" fill="#EA5C5C"/>
</svg>
